<svg width="38" height="38" viewBox="0 0 38 38" fill="none" xmlns="http://www.w3.org/2000/svg">
<path d="M33.25 18.2083C33.2554 20.2981 32.7672 22.3597 31.825 24.225C30.7079 26.4603 28.9904 28.3404 26.8651 29.6547C24.7398 30.969 22.2906 31.6657 19.7917 31.6667C17.7019 31.6721 15.6403 31.1839 13.775 30.2417L4.75 33.25L7.75833 24.225C6.81614 22.3597 6.32788 20.2981 6.33333 18.2083C6.3343 15.7095 7.03097 13.2602 8.34531 11.1349C9.65964 9.00958 11.5397 7.29216 13.775 6.17501C15.6403 5.23282 17.7019 4.74457 19.7917 4.75001H20.5833C23.8836 4.93208 27.0007 6.32505 29.3378 8.66221C31.675 10.9994 33.0679 14.1165 33.25 17.4167V18.2083Z" stroke="#1E1E1E" stroke-width="4" stroke-linecap="round" stroke-linejoin="round"/>
</svg>
